<svg width="34" height="34" viewBox="0 0 34 34" fill="none" xmlns="http://www.w3.org/2000/svg">
<mask id="mask0_7_333" style="mask-type:alpha" maskUnits="userSpaceOnUse" x="0" y="0" width="34" height="34">
<rect width="34" height="34" fill="#D9D9D9"/>
</mask>
<g mask="url(#mask0_7_333)">
<path d="M7.08333 29.75C6.30417 29.75 5.63715 29.4726 5.08229 28.9177C4.52743 28.3628 4.25 27.6958 4.25 26.9167V7.08333C4.25 6.30417 4.52743 5.63715 5.08229 5.08229C5.63715 4.52743 6.30417 4.25 7.08333 4.25H18.4167C18.8181 4.25 19.1545 4.38576 19.426 4.65729C19.6976 4.92882 19.8333 5.26528 19.8333 5.66667C19.8333 6.06806 19.6976 6.40451 19.426 6.67604C19.1545 6.94757 18.8181 7.08333 18.4167 7.08333H7.08333V26.9167H26.9167V15.5833C26.9167 15.1819 27.0524 14.8455 27.324 14.574C27.5955 14.3024 27.9319 14.1667 28.3333 14.1667C28.7347 14.1667 29.0712 14.3024 29.3427 14.574C29.6142 14.8455 29.75 15.1819 29.75 15.5833V26.9167C29.75 27.6958 29.4726 28.3628 28.9177 28.9177C28.3628 29.4726 27.6958 29.75 26.9167 29.75H7.08333ZM24.0833 9.91667H22.6667C22.2653 9.91667 21.9288 9.7809 21.6573 9.50937C21.3858 9.23785 21.25 8.90139 21.25 8.5C21.25 8.09861 21.3858 7.76215 21.6573 7.49063C21.9288 7.2191 22.2653 7.08333 22.6667 7.08333H24.0833V5.66667C24.0833 5.26528 24.2191 4.92882 24.4906 4.65729C24.7622 4.38576 25.0986 4.25 25.5 4.25C25.9014 4.25 26.2378 4.38576 26.5094 4.65729C26.7809 4.92882 26.9167 5.26528 26.9167 5.66667V7.08333H28.3333C28.7347 7.08333 29.0712 7.2191 29.3427 7.49063C29.6142 7.76215 29.75 8.09861 29.75 8.5C29.75 8.90139 29.6142 9.23785 29.3427 9.50937C29.0712 9.7809 28.7347 9.91667 28.3333 9.91667H26.9167V11.3333C26.9167 11.7347 26.7809 12.0712 26.5094 12.3427C26.2378 12.6142 25.9014 12.75 25.5 12.75C25.0986 12.75 24.7622 12.6142 24.4906 12.3427C24.2191 12.0712 24.0833 11.7347 24.0833 11.3333V9.91667ZM15.9375 22.6667L13.3167 19.1604C13.175 18.9715 12.9861 18.8771 12.75 18.8771C12.5139 18.8771 12.325 18.9715 12.1833 19.1604L9.35 22.95C9.16111 23.1861 9.1375 23.434 9.27917 23.6937C9.42083 23.9535 9.63333 24.0833 9.91667 24.0833H24.0833C24.3667 24.0833 24.5792 23.9535 24.7208 23.6937C24.8625 23.434 24.8389 23.1861 24.65 22.95L20.7542 17.7438C20.6125 17.5549 20.4236 17.4604 20.1875 17.4604C19.9514 17.4604 19.7625 17.5549 19.6208 17.7438L15.9375 22.6667Z" fill="#1C1B1F"/>
</g>
</svg>
