<svg width="48" height="48" viewBox="0 0 34 34" fill="none" xmlns="http://www.w3.org/2000/svg">
<mask id="mask0_7_370" style="mask-type:alpha" maskUnits="userSpaceOnUse" x="0" y="0" width="34" height="34">
<rect width="34" height="34" fill="#F4EEFC"/>
</mask>
<g mask="url(#mask0_7_370)">
<path d="M16.0083 20.2583L12.325 16.575C11.8764 16.1264 11.776 15.6128 12.024 15.0344C12.2719 14.4559 12.7146 14.1667 13.3521 14.1667H20.6479C21.2854 14.1667 21.7281 14.4559 21.976 15.0344C22.224 15.6128 22.1236 16.1264 21.675 16.575L17.9917 20.2583C17.85 20.4 17.6965 20.5062 17.5313 20.5771C17.366 20.6479 17.1889 20.6833 17 20.6833C16.8111 20.6833 16.634 20.6479 16.4688 20.5771C16.3035 20.5062 16.15 20.4 16.0083 20.2583Z" fill="#F4EEFC"/>
</g>
</svg>
