<svg width="34" height="34" viewBox="0 0 34 34" fill="none" xmlns="http://www.w3.org/2000/svg">
<mask id="mask0_7_338" style="mask-type:alpha" maskUnits="userSpaceOnUse" x="0" y="0" width="34" height="34">
<rect width="34" height="34" fill="#D9D9D9"/>
</mask>
<g mask="url(#mask0_7_338)">
<path d="M5.66671 34C4.88754 34 4.22053 33.7226 3.66567 33.1677C3.1108 32.6128 2.83337 31.9458 2.83337 31.1667C2.83337 30.3875 3.1108 29.7205 3.66567 29.1656C4.22053 28.6108 4.88754 28.3333 5.66671 28.3333H28.3334C29.1125 28.3333 29.7796 28.6108 30.3344 29.1656C30.8893 29.7205 31.1667 30.3875 31.1667 31.1667C31.1667 31.9458 30.8893 32.6128 30.3344 33.1677C29.7796 33.7226 29.1125 34 28.3334 34H5.66671ZM10.1292 24.0833C9.49171 24.0833 9.01949 23.8708 8.71254 23.4458C8.4056 23.0208 8.37018 22.5014 8.60629 21.8875L14.6271 5.87917C14.7924 5.43056 15.1112 5.04687 15.5834 4.72812C16.0556 4.40937 16.5396 4.25 17.0355 4.25C17.5077 4.25 17.974 4.40937 18.4344 4.72812C18.8948 5.04687 19.2077 5.43056 19.373 5.87917L25.3938 21.8875C25.6299 22.5014 25.5945 23.0208 25.2875 23.4458C24.9806 23.8708 24.4966 24.0833 23.8355 24.0833C23.5521 24.0833 23.2747 23.9889 23.0032 23.8C22.7316 23.6111 22.5487 23.3868 22.4542 23.1271L21.0375 18.9833H13.0334L11.5459 23.1271C11.4514 23.3868 11.2684 23.6111 10.9969 23.8C10.7254 23.9889 10.4362 24.0833 10.1292 24.0833ZM14.025 16.15H19.975L17.0709 7.93333H16.9292L14.025 16.15Z" fill="#1C1B1F"/>
</g>
</svg>
