<svg width="34" height="34" viewBox="0 0 34 34" fill="none" xmlns="http://www.w3.org/2000/svg">
<mask id="mask0_7_375" style="mask-type:alpha" maskUnits="userSpaceOnUse" x="0" y="0" width="34" height="34">
<rect width="34" height="34" fill="#D9D9D9"/>
</mask>
<g mask="url(#mask0_7_375)">
<path d="M12.4666 26.9167C11.6875 26.9167 11.0205 26.6392 10.4656 26.0844C9.91073 25.5295 9.6333 24.8625 9.6333 24.0833V9.91668C9.6333 9.13751 9.91073 8.4705 10.4656 7.91564C11.0205 7.36077 11.6875 7.08334 12.4666 7.08334H17.4604C18.9951 7.08334 20.4118 7.55557 21.7104 8.50001C23.009 9.44445 23.6583 10.7549 23.6583 12.4313C23.6583 13.6354 23.3868 14.5622 22.8437 15.2115C22.3007 15.8608 21.793 16.3271 21.3208 16.6104C21.9111 16.8701 22.5663 17.3542 23.2864 18.0625C24.0066 18.7708 24.3666 19.8333 24.3666 21.25C24.3666 23.3514 23.5993 24.8212 22.0646 25.6594C20.5298 26.4976 19.0896 26.9167 17.7437 26.9167H12.4666ZM13.9187 22.95H17.6021C18.7354 22.95 19.426 22.6608 19.6739 22.0823C19.9218 21.5038 20.0458 21.0847 20.0458 20.825C20.0458 20.5653 19.9218 20.1462 19.6739 19.5677C19.426 18.9892 18.7 18.7 17.4958 18.7H13.9187V22.95ZM13.9187 14.875H17.2125C17.9916 14.875 18.5583 14.6743 18.9125 14.2729C19.2666 13.8715 19.4437 13.4229 19.4437 12.9271C19.4437 12.3604 19.243 11.9 18.8416 11.5458C18.4402 11.1917 17.9208 11.0146 17.2833 11.0146H13.9187V14.875Z" fill="#1C1B1F"/>
</g>
</svg>
