<svg width="34" height="34" viewBox="0 0 34 34" fill="none" xmlns="http://www.w3.org/2000/svg">
<mask id="mask0_7_378" style="mask-type:alpha" maskUnits="userSpaceOnUse" x="0" y="0" width="34" height="34">
<rect width="34" height="34" fill="#F4EEFC"/>
</mask>
<g mask="url(#mask0_7_378)">
<path d="M8.49992 29.75C8.09853 29.75 7.76207 29.6142 7.49054 29.3427C7.21902 29.0712 7.08325 28.7347 7.08325 28.3333C7.08325 27.9319 7.21902 27.5955 7.49054 27.324C7.76207 27.0524 8.09853 26.9167 8.49992 26.9167H25.4999C25.9013 26.9167 26.2378 27.0524 26.5093 27.324C26.7808 27.5955 26.9166 27.9319 26.9166 28.3333C26.9166 28.7347 26.7808 29.0712 26.5093 29.3427C26.2378 29.6142 25.9013 29.75 25.4999 29.75H8.49992ZM16.9999 24.0833C14.6152 24.0833 12.7617 23.3396 11.4395 21.8521C10.1173 20.3646 9.45617 18.3931 9.45617 15.9375V6.05625C9.45617 5.56042 9.63915 5.13542 10.0051 4.78125C10.3711 4.42708 10.802 4.25 11.2978 4.25C11.7937 4.25 12.2187 4.42708 12.5728 4.78125C12.927 5.13542 13.1041 5.56042 13.1041 6.05625V16.15C13.1041 17.4722 13.4346 18.5465 14.0958 19.3729C14.7569 20.1993 15.7249 20.6125 16.9999 20.6125C18.2749 20.6125 19.243 20.1993 19.9041 19.3729C20.5652 18.5465 20.8958 17.4722 20.8958 16.15V6.05625C20.8958 5.56042 21.0787 5.13542 21.4447 4.78125C21.8107 4.42708 22.2416 4.25 22.7374 4.25C23.2333 4.25 23.6583 4.42708 24.0124 4.78125C24.3666 5.13542 24.5437 5.56042 24.5437 6.05625V15.9375C24.5437 18.3931 23.8826 20.3646 22.5603 21.8521C21.2381 23.3396 19.3846 24.0833 16.9999 24.0833Z" fill="#F4EEFC"/>
</g>
</svg>
