<svg width="34" height="34" viewBox="0 0 34 34" fill="none" xmlns="http://www.w3.org/2000/svg">
<mask id="mask0_7_349" style="mask-type:alpha" maskUnits="userSpaceOnUse" x="0" y="0" width="34" height="34">
<rect width="34" height="34" fill="#D9D9D9"/>
</mask>
<g mask="url(#mask0_7_349)">
<path d="M5.3125 31.1667C5.00556 31.1667 4.75174 31.0663 4.55104 30.8656C4.35035 30.6649 4.25 30.4111 4.25 30.1042C4.25 29.7972 4.35035 29.5434 4.55104 29.3427C4.75174 29.142 5.00556 29.0417 5.3125 29.0417H7.79167V27.9792H6.72917C6.42222 27.9792 6.1684 27.8788 5.96771 27.6781C5.76701 27.4774 5.66667 27.2236 5.66667 26.9167C5.66667 26.6097 5.76701 26.3559 5.96771 26.1552C6.1684 25.9545 6.42222 25.8542 6.72917 25.8542H7.79167V24.7917H5.3125C5.00556 24.7917 4.75174 24.6913 4.55104 24.4906C4.35035 24.2899 4.25 24.0361 4.25 23.7292C4.25 23.4222 4.35035 23.1684 4.55104 22.9677C4.75174 22.767 5.00556 22.6667 5.3125 22.6667H8.5C8.90139 22.6667 9.23785 22.8024 9.50937 23.074C9.7809 23.3455 9.91667 23.682 9.91667 24.0833V25.5C9.91667 25.9014 9.7809 26.2379 9.50937 26.5094C9.23785 26.7809 8.90139 26.9167 8.5 26.9167C8.90139 26.9167 9.23785 27.0524 9.50937 27.324C9.7809 27.5955 9.91667 27.932 9.91667 28.3333V29.75C9.91667 30.1514 9.7809 30.4879 9.50937 30.7594C9.23785 31.0309 8.90139 31.1667 8.5 31.1667H5.3125ZM5.3125 21.25C5.00556 21.25 4.75174 21.1497 4.55104 20.949C4.35035 20.7483 4.25 20.4945 4.25 20.1875V17.3542C4.25 16.9528 4.38576 16.6163 4.65729 16.3448C4.92882 16.0733 5.26528 15.9375 5.66667 15.9375H7.79167V14.875H5.3125C5.00556 14.875 4.75174 14.7747 4.55104 14.574C4.35035 14.3733 4.25 14.1195 4.25 13.8125C4.25 13.5056 4.35035 13.2517 4.55104 13.0511C4.75174 12.8504 5.00556 12.75 5.3125 12.75H8.5C8.90139 12.75 9.23785 12.8858 9.50937 13.1573C9.7809 13.4288 9.91667 13.7653 9.91667 14.1667V16.6458C9.91667 17.0472 9.7809 17.3837 9.50937 17.6552C9.23785 17.9267 8.90139 18.0625 8.5 18.0625H6.375V19.125H8.85417C9.16111 19.125 9.41493 19.2254 9.61563 19.4261C9.81632 19.6267 9.91667 19.8806 9.91667 20.1875C9.91667 20.4945 9.81632 20.7483 9.61563 20.949C9.41493 21.1497 9.16111 21.25 8.85417 21.25H5.3125ZM7.4375 11.3333C7.13056 11.3333 6.87674 11.233 6.67604 11.0323C6.47535 10.8316 6.375 10.5778 6.375 10.2708V4.95834H5.3125C5.00556 4.95834 4.75174 4.858 4.55104 4.6573C4.35035 4.45661 4.25 4.20279 4.25 3.89584C4.25 3.5889 4.35035 3.33508 4.55104 3.13439C4.75174 2.93369 5.00556 2.83334 5.3125 2.83334H7.4375C7.74444 2.83334 7.99826 2.93369 8.19896 3.13439C8.39965 3.33508 8.5 3.5889 8.5 3.89584V10.2708C8.5 10.5778 8.39965 10.8316 8.19896 11.0323C7.99826 11.233 7.74444 11.3333 7.4375 11.3333ZM14.1667 26.9167C13.7653 26.9167 13.4288 26.7809 13.1573 26.5094C12.8858 26.2379 12.75 25.9014 12.75 25.5C12.75 25.0986 12.8858 24.7622 13.1573 24.4906C13.4288 24.2191 13.7653 24.0833 14.1667 24.0833H28.3333C28.7347 24.0833 29.0712 24.2191 29.3427 24.4906C29.6142 24.7622 29.75 25.0986 29.75 25.5C29.75 25.9014 29.6142 26.2379 29.3427 26.5094C29.0712 26.7809 28.7347 26.9167 28.3333 26.9167H14.1667ZM14.1667 18.4167C13.7653 18.4167 13.4288 18.2809 13.1573 18.0094C12.8858 17.7379 12.75 17.4014 12.75 17C12.75 16.5986 12.8858 16.2622 13.1573 15.9906C13.4288 15.7191 13.7653 15.5833 14.1667 15.5833H28.3333C28.7347 15.5833 29.0712 15.7191 29.3427 15.9906C29.6142 16.2622 29.75 16.5986 29.75 17C29.75 17.4014 29.6142 17.7379 29.3427 18.0094C29.0712 18.2809 28.7347 18.4167 28.3333 18.4167H14.1667ZM14.1667 9.91668C13.7653 9.91668 13.4288 9.78091 13.1573 9.50939C12.8858 9.23786 12.75 8.9014 12.75 8.50001C12.75 8.09862 12.8858 7.76216 13.1573 7.49064C13.4288 7.21911 13.7653 7.08334 14.1667 7.08334H28.3333C28.7347 7.08334 29.0712 7.21911 29.3427 7.49064C29.6142 7.76216 29.75 8.09862 29.75 8.50001C29.75 8.9014 29.6142 9.23786 29.3427 9.50939C29.0712 9.78091 28.7347 9.91668 28.3333 9.91668H14.1667Z" fill="#1C1B1F"/>
</g>
</svg>
