<svg width="34" height="34" viewBox="0 0 34 34" fill="none" xmlns="http://www.w3.org/2000/svg">
<mask id="mask0_7_381" style="mask-type:alpha" maskUnits="userSpaceOnUse" x="0" y="0" width="34" height="34">
<rect width="34" height="34" fill="#D9D9D9"/>
</mask>
<g mask="url(#mask0_7_381)">
<path d="M8.85409 26.9167C8.35825 26.9167 7.93915 26.7455 7.59679 26.4031C7.25443 26.0608 7.08325 25.6417 7.08325 25.1458C7.08325 24.65 7.25443 24.2309 7.59679 23.8886C7.93915 23.5462 8.35825 23.375 8.85409 23.375H12.7499L16.9999 10.625H13.1041C12.6083 10.625 12.1892 10.4538 11.8468 10.1115C11.5044 9.76911 11.3333 9.35001 11.3333 8.85418C11.3333 8.35834 11.5044 7.93925 11.8468 7.59689C12.1892 7.25452 12.6083 7.08334 13.1041 7.08334H23.7291C24.2249 7.08334 24.644 7.25452 24.9864 7.59689C25.3287 7.93925 25.4999 8.35834 25.4999 8.85418C25.4999 9.35001 25.3287 9.76911 24.9864 10.1115C24.644 10.4538 24.2249 10.625 23.7291 10.625H20.5416L16.2916 23.375H19.4791C19.9749 23.375 20.394 23.5462 20.7364 23.8886C21.0787 24.2309 21.2499 24.65 21.2499 25.1458C21.2499 25.6417 21.0787 26.0608 20.7364 26.4031C20.394 26.7455 19.9749 26.9167 19.4791 26.9167H8.85409Z" fill="#1C1B1F"/>
</g>
</svg>
