<svg width="34" height="34" viewBox="0 0 34 34" fill="none" xmlns="http://www.w3.org/2000/svg">
<mask id="mask0_7_346" style="mask-type:alpha" maskUnits="userSpaceOnUse" x="0" y="0" width="34" height="34">
<rect width="34" height="34" fill="#F4EEFC"/>
</mask>
<g mask="url(#mask0_7_346)">
<path d="M14.1667 26.9167C13.7653 26.9167 13.4288 26.7809 13.1573 26.5094C12.8858 26.2378 12.75 25.9014 12.75 25.5C12.75 25.0986 12.8858 24.7621 13.1573 24.4906C13.4288 24.2191 13.7653 24.0833 14.1667 24.0833H28.3333C28.7347 24.0833 29.0712 24.2191 29.3427 24.4906C29.6142 24.7621 29.75 25.0986 29.75 25.5C29.75 25.9014 29.6142 26.2378 29.3427 26.5094C29.0712 26.7809 28.7347 26.9167 28.3333 26.9167H14.1667ZM14.1667 18.4167C13.7653 18.4167 13.4288 18.2809 13.1573 18.0094C12.8858 17.7378 12.75 17.4014 12.75 17C12.75 16.5986 12.8858 16.2621 13.1573 15.9906C13.4288 15.7191 13.7653 15.5833 14.1667 15.5833H28.3333C28.7347 15.5833 29.0712 15.7191 29.3427 15.9906C29.6142 16.2621 29.75 16.5986 29.75 17C29.75 17.4014 29.6142 17.7378 29.3427 18.0094C29.0712 18.2809 28.7347 18.4167 28.3333 18.4167H14.1667ZM14.1667 9.91666C13.7653 9.91666 13.4288 9.78089 13.1573 9.50936C12.8858 9.23784 12.75 8.90138 12.75 8.49999C12.75 8.0986 12.8858 7.76214 13.1573 7.49061C13.4288 7.21909 13.7653 7.08332 14.1667 7.08332H28.3333C28.7347 7.08332 29.0712 7.21909 29.3427 7.49061C29.6142 7.76214 29.75 8.0986 29.75 8.49999C29.75 8.90138 29.6142 9.23784 29.3427 9.50936C29.0712 9.78089 28.7347 9.91666 28.3333 9.91666H14.1667ZM7.08333 28.3333C6.30417 28.3333 5.63715 28.0559 5.08229 27.501C4.52743 26.9462 4.25 26.2792 4.25 25.5C4.25 24.7208 4.52743 24.0538 5.08229 23.4989C5.63715 22.9441 6.30417 22.6667 7.08333 22.6667C7.8625 22.6667 8.52951 22.9441 9.08438 23.4989C9.63924 24.0538 9.91667 24.7208 9.91667 25.5C9.91667 26.2792 9.63924 26.9462 9.08438 27.501C8.52951 28.0559 7.8625 28.3333 7.08333 28.3333ZM7.08333 19.8333C6.30417 19.8333 5.63715 19.5559 5.08229 19.001C4.52743 18.4462 4.25 17.7792 4.25 17C4.25 16.2208 4.52743 15.5538 5.08229 14.9989C5.63715 14.4441 6.30417 14.1667 7.08333 14.1667C7.8625 14.1667 8.52951 14.4441 9.08438 14.9989C9.63924 15.5538 9.91667 16.2208 9.91667 17C9.91667 17.7792 9.63924 18.4462 9.08438 19.001C8.52951 19.5559 7.8625 19.8333 7.08333 19.8333ZM7.08333 11.3333C6.30417 11.3333 5.63715 11.0559 5.08229 10.501C4.52743 9.94617 4.25 9.27916 4.25 8.49999C4.25 7.72082 4.52743 7.05381 5.08229 6.49895C5.63715 5.94409 6.30417 5.66666 7.08333 5.66666C7.8625 5.66666 8.52951 5.94409 9.08438 6.49895C9.63924 7.05381 9.91667 7.72082 9.91667 8.49999C9.91667 9.27916 9.63924 9.94617 9.08438 10.501C8.52951 11.0559 7.8625 11.3333 7.08333 11.3333Z" fill="#F4EEFC"/>
</g>
</svg>
