<svg width="34" height="34" viewBox="0 0 34 34" fill="none" xmlns="http://www.w3.org/2000/svg">
<mask id="mask0_7_341" style="mask-type:alpha" maskUnits="userSpaceOnUse" x="0" y="0" width="34" height="34">
<rect width="34" height="34" fill="#F4EEFC"/>
</mask>
<g mask="url(#mask0_7_341)">
<path d="M5.66671 34C4.88754 34 4.22053 33.7226 3.66567 33.1677C3.1108 32.6129 2.83337 31.9458 2.83337 31.1667C2.83337 30.3875 3.1108 29.7205 3.66567 29.1656C4.22053 28.6108 4.88754 28.3333 5.66671 28.3333H28.3334C29.1125 28.3333 29.7796 28.6108 30.3344 29.1656C30.8893 29.7205 31.1667 30.3875 31.1667 31.1667C31.1667 31.9458 30.8893 32.6129 30.3344 33.1677C29.7796 33.7226 29.1125 34 28.3334 34H5.66671ZM20.6834 17L17 13.3167L11.3334 18.9833L14.9813 22.6667L20.6834 17ZM19.0188 11.3333L22.6667 14.9813L28.3334 9.35001L24.65 5.66668L19.0188 11.3333ZM16.0438 10.3063L23.6938 17.9563L17 24.6854C16.4334 25.2521 15.7664 25.5354 14.999 25.5354C14.2316 25.5354 13.5646 25.2521 12.998 24.6854L12.8209 24.8271C12.5612 25.0396 12.2778 25.2049 11.9709 25.3229C11.6639 25.441 11.3452 25.5 11.0146 25.5H6.69379C6.36324 25.5 6.13303 25.3583 6.00317 25.075C5.8733 24.7917 5.92643 24.532 6.16254 24.2958L9.42087 21.0729C8.85421 20.5063 8.55907 19.8274 8.53546 19.0365C8.51185 18.2455 8.78337 17.5667 9.35004 17L16.0438 10.3063ZM16.0438 10.3063L22.6667 3.68334C23.2334 3.11668 23.9004 2.83334 24.6677 2.83334C25.4351 2.83334 26.1021 3.11668 26.6688 3.68334L30.3521 7.33126C30.9188 7.89793 31.2021 8.56494 31.2021 9.3323C31.2021 10.0997 30.9188 10.7667 30.3521 11.3333L23.6938 17.9563L16.0438 10.3063Z" fill="#F4EEFC"/>
</g>
</svg>
