<svg width="34" height="34" viewBox="0 0 34 34" fill="none" xmlns="http://www.w3.org/2000/svg">
<mask id="mask0_7_360" style="mask-type:alpha" maskUnits="userSpaceOnUse" x="0" y="0" width="34" height="34">
<rect width="34" height="34" fill="#D9D9D9"/>
</mask>
<g mask="url(#mask0_7_360)">
<path d="M5.66667 29.75C5.26528 29.75 4.92882 29.6142 4.65729 29.3427C4.38576 29.0712 4.25 28.7347 4.25 28.3333C4.25 27.9319 4.38576 27.5955 4.65729 27.324C4.92882 27.0524 5.26528 26.9167 5.66667 26.9167H28.3333C28.7347 26.9167 29.0712 27.0524 29.3427 27.324C29.6142 27.5955 29.75 27.9319 29.75 28.3333C29.75 28.7347 29.6142 29.0712 29.3427 29.3427C29.0712 29.6142 28.7347 29.75 28.3333 29.75H5.66667ZM14.1667 24.0833C13.7653 24.0833 13.4288 23.9476 13.1573 23.676C12.8858 23.4045 12.75 23.0681 12.75 22.6667C12.75 22.2653 12.8858 21.9288 13.1573 21.6573C13.4288 21.3858 13.7653 21.25 14.1667 21.25H28.3333C28.7347 21.25 29.0712 21.3858 29.3427 21.6573C29.6142 21.9288 29.75 22.2653 29.75 22.6667C29.75 23.0681 29.6142 23.4045 29.3427 23.676C29.0712 23.9476 28.7347 24.0833 28.3333 24.0833H14.1667ZM5.66667 18.4167C5.26528 18.4167 4.92882 18.2809 4.65729 18.0094C4.38576 17.7378 4.25 17.4014 4.25 17C4.25 16.5986 4.38576 16.2622 4.65729 15.9906C4.92882 15.7191 5.26528 15.5833 5.66667 15.5833H28.3333C28.7347 15.5833 29.0712 15.7191 29.3427 15.9906C29.6142 16.2622 29.75 16.5986 29.75 17C29.75 17.4014 29.6142 17.7378 29.3427 18.0094C29.0712 18.2809 28.7347 18.4167 28.3333 18.4167H5.66667ZM14.1667 12.75C13.7653 12.75 13.4288 12.6142 13.1573 12.3427C12.8858 12.0712 12.75 11.7347 12.75 11.3333C12.75 10.9319 12.8858 10.5955 13.1573 10.324C13.4288 10.0524 13.7653 9.91667 14.1667 9.91667H28.3333C28.7347 9.91667 29.0712 10.0524 29.3427 10.324C29.6142 10.5955 29.75 10.9319 29.75 11.3333C29.75 11.7347 29.6142 12.0712 29.3427 12.3427C29.0712 12.6142 28.7347 12.75 28.3333 12.75H14.1667ZM5.66667 7.08333C5.26528 7.08333 4.92882 6.94757 4.65729 6.67604C4.38576 6.40451 4.25 6.06806 4.25 5.66667C4.25 5.26528 4.38576 4.92882 4.65729 4.65729C4.92882 4.38576 5.26528 4.25 5.66667 4.25H28.3333C28.7347 4.25 29.0712 4.38576 29.3427 4.65729C29.6142 4.92882 29.75 5.26528 29.75 5.66667C29.75 6.06806 29.6142 6.40451 29.3427 6.67604C29.0712 6.94757 28.7347 7.08333 28.3333 7.08333H5.66667Z" fill="#1C1B1F"/>
</g>
</svg>
