<svg width="34" height="34" viewBox="0 0 34 34" fill="none" xmlns="http://www.w3.org/2000/svg">
<mask id="mask0_7_354" style="mask-type:alpha" maskUnits="userSpaceOnUse" x="0" y="0" width="34" height="34">
<rect width="34" height="34" fill="#D9D9D9"/>
</mask>
<g mask="url(#mask0_7_354)">
<path d="M5.66667 24.0833C5.26528 24.0833 4.92882 23.9476 4.65729 23.676C4.38576 23.4045 4.25 23.0681 4.25 22.6667C4.25 22.2653 4.38576 21.9288 4.65729 21.6573C4.92882 21.3858 5.26528 21.25 5.66667 21.25H19.8333C20.2347 21.25 20.5712 21.3858 20.8427 21.6573C21.1142 21.9288 21.25 22.2653 21.25 22.6667C21.25 23.0681 21.1142 23.4045 20.8427 23.676C20.5712 23.9476 20.2347 24.0833 19.8333 24.0833H5.66667ZM5.66667 12.75C5.26528 12.75 4.92882 12.6142 4.65729 12.3427C4.38576 12.0712 4.25 11.7347 4.25 11.3333C4.25 10.9319 4.38576 10.5955 4.65729 10.324C4.92882 10.0524 5.26528 9.91667 5.66667 9.91667H19.8333C20.2347 9.91667 20.5712 10.0524 20.8427 10.324C21.1142 10.5955 21.25 10.9319 21.25 11.3333C21.25 11.7347 21.1142 12.0712 20.8427 12.3427C20.5712 12.6142 20.2347 12.75 19.8333 12.75H5.66667ZM5.66667 18.4167C5.26528 18.4167 4.92882 18.2809 4.65729 18.0094C4.38576 17.7378 4.25 17.4014 4.25 17C4.25 16.5986 4.38576 16.2622 4.65729 15.9906C4.92882 15.7191 5.26528 15.5833 5.66667 15.5833H28.3333C28.7347 15.5833 29.0712 15.7191 29.3427 15.9906C29.6142 16.2622 29.75 16.5986 29.75 17C29.75 17.4014 29.6142 17.7378 29.3427 18.0094C29.0712 18.2809 28.7347 18.4167 28.3333 18.4167H5.66667ZM5.66667 29.75C5.26528 29.75 4.92882 29.6142 4.65729 29.3427C4.38576 29.0712 4.25 28.7347 4.25 28.3333C4.25 27.9319 4.38576 27.5955 4.65729 27.324C4.92882 27.0524 5.26528 26.9167 5.66667 26.9167H28.3333C28.7347 26.9167 29.0712 27.0524 29.3427 27.324C29.6142 27.5955 29.75 27.9319 29.75 28.3333C29.75 28.7347 29.6142 29.0712 29.3427 29.3427C29.0712 29.6142 28.7347 29.75 28.3333 29.75H5.66667ZM5.66667 7.08333C5.26528 7.08333 4.92882 6.94757 4.65729 6.67604C4.38576 6.40451 4.25 6.06806 4.25 5.66667C4.25 5.26528 4.38576 4.92882 4.65729 4.65729C4.92882 4.38576 5.26528 4.25 5.66667 4.25H28.3333C28.7347 4.25 29.0712 4.38576 29.3427 4.65729C29.6142 4.92882 29.75 5.26528 29.75 5.66667C29.75 6.06806 29.6142 6.40451 29.3427 6.67604C29.0712 6.94757 28.7347 7.08333 28.3333 7.08333H5.66667Z" fill="#1C1B1F"/>
</g>
</svg>
