<svg width="34" height="34" viewBox="0 0 34 34" fill="none" xmlns="http://www.w3.org/2000/svg">
<mask id="mask0_7_330" style="mask-type:alpha" maskUnits="userSpaceOnUse" x="0" y="0" width="34" height="34">
<rect width="34" height="34" fill="#F4EEFC"/>
</mask>
<g mask="url(#mask0_7_330)">
<path d="M9.91671 24.0833C7.95699 24.0833 6.2865 23.3927 4.90525 22.0114C3.524 20.6302 2.83337 18.9597 2.83337 17C2.83337 15.0403 3.524 13.3698 4.90525 11.9885C6.2865 10.6073 7.95699 9.91666 9.91671 9.91666H14.1667C14.5681 9.91666 14.9046 10.0524 15.1761 10.3239C15.4476 10.5955 15.5834 10.9319 15.5834 11.3333C15.5834 11.7347 15.4476 12.0712 15.1761 12.3427C14.9046 12.6142 14.5681 12.75 14.1667 12.75H9.91671C8.73615 12.75 7.73268 13.1632 6.90629 13.9896C6.0799 14.816 5.66671 15.8194 5.66671 17C5.66671 18.1805 6.0799 19.184 6.90629 20.0104C7.73268 20.8368 8.73615 21.25 9.91671 21.25H14.1667C14.5681 21.25 14.9046 21.3858 15.1761 21.6573C15.4476 21.9288 15.5834 22.2653 15.5834 22.6667C15.5834 23.068 15.4476 23.4045 15.1761 23.676C14.9046 23.9476 14.5681 24.0833 14.1667 24.0833H9.91671ZM12.75 18.4167C12.3487 18.4167 12.0122 18.2809 11.7407 18.0094C11.4691 17.7378 11.3334 17.4014 11.3334 17C11.3334 16.5986 11.4691 16.2621 11.7407 15.9906C12.0122 15.7191 12.3487 15.5833 12.75 15.5833H21.25C21.6514 15.5833 21.9879 15.7191 22.2594 15.9906C22.5309 16.2621 22.6667 16.5986 22.6667 17C22.6667 17.4014 22.5309 17.7378 22.2594 18.0094C21.9879 18.2809 21.6514 18.4167 21.25 18.4167H12.75ZM19.8334 24.0833C19.432 24.0833 19.0955 23.9476 18.824 23.676C18.5525 23.4045 18.4167 23.068 18.4167 22.6667C18.4167 22.2653 18.5525 21.9288 18.824 21.6573C19.0955 21.3858 19.432 21.25 19.8334 21.25H24.0834C25.2639 21.25 26.2674 20.8368 27.0938 20.0104C27.9202 19.184 28.3334 18.1805 28.3334 17C28.3334 15.8194 27.9202 14.816 27.0938 13.9896C26.2674 13.1632 25.2639 12.75 24.0834 12.75H19.8334C19.432 12.75 19.0955 12.6142 18.824 12.3427C18.5525 12.0712 18.4167 11.7347 18.4167 11.3333C18.4167 10.9319 18.5525 10.5955 18.824 10.3239C19.0955 10.0524 19.432 9.91666 19.8334 9.91666H24.0834C26.0431 9.91666 27.7136 10.6073 29.0948 11.9885C30.4761 13.3698 31.1667 15.0403 31.1667 17C31.1667 18.9597 30.4761 20.6302 29.0948 22.0114C27.7136 23.3927 26.0431 24.0833 24.0834 24.0833H19.8334Z" fill="#F4EEFC"/>
</g>
</svg>
