<svg width="34" height="34" viewBox="0 0 34 34" fill="none" xmlns="http://www.w3.org/2000/svg">
<mask id="mask0_7_325" style="mask-type:alpha" maskUnits="userSpaceOnUse" x="0" y="0" width="34" height="34">
<rect width="34" height="34" fill="#D9D9D9"/>
</mask>
<g mask="url(#mask0_7_325)">
<path d="M14.1667 14.875H15.5834C15.9848 14.875 16.3212 14.7392 16.5928 14.4677C16.8643 14.1962 17 13.8597 17 13.4583V12.0417C17 11.6403 16.8643 11.3038 16.5928 11.0323C16.3212 10.7608 15.9848 10.625 15.5834 10.625H13.4584C13.2695 10.625 13.1042 10.6958 12.9625 10.8375C12.8209 10.9792 12.75 11.1445 12.75 11.3333V17C12.75 17.1889 12.8209 17.3542 12.9625 17.4958C13.1042 17.6375 13.2695 17.7083 13.4584 17.7083C13.6473 17.7083 13.8125 17.6375 13.9542 17.4958C14.0959 17.3542 14.1667 17.1889 14.1667 17V14.875ZM14.1667 13.4583V12.0417H15.5834V13.4583H14.1667ZM21.25 17.7083C21.6514 17.7083 21.9879 17.5726 22.2594 17.3011C22.5309 17.0295 22.6667 16.6931 22.6667 16.2917V12.0417C22.6667 11.6403 22.5309 11.3038 22.2594 11.0323C21.9879 10.7608 21.6514 10.625 21.25 10.625H19.125C18.9362 10.625 18.7709 10.6958 18.6292 10.8375C18.4875 10.9792 18.4167 11.1445 18.4167 11.3333V17C18.4167 17.1889 18.4875 17.3542 18.6292 17.4958C18.7709 17.6375 18.9362 17.7083 19.125 17.7083H21.25ZM19.8334 16.2917V12.0417H21.25V16.2917H19.8334ZM25.5 14.875H26.2084C26.3973 14.875 26.5625 14.8042 26.7042 14.6625C26.8459 14.5208 26.9167 14.3556 26.9167 14.1667C26.9167 13.9778 26.8459 13.8125 26.7042 13.6708C26.5625 13.5292 26.3973 13.4583 26.2084 13.4583H25.5V12.0417H26.2084C26.3973 12.0417 26.5625 11.9708 26.7042 11.8292C26.8459 11.6875 26.9167 11.5222 26.9167 11.3333C26.9167 11.1445 26.8459 10.9792 26.7042 10.8375C26.5625 10.6958 26.3973 10.625 26.2084 10.625H24.7917C24.6028 10.625 24.4375 10.6958 24.2959 10.8375C24.1542 10.9792 24.0834 11.1445 24.0834 11.3333V17C24.0834 17.1889 24.1542 17.3542 24.2959 17.4958C24.4375 17.6375 24.6028 17.7083 24.7917 17.7083C24.9806 17.7083 25.1459 17.6375 25.2875 17.4958C25.4292 17.3542 25.5 17.1889 25.5 17V14.875ZM11.3334 25.5C10.5542 25.5 9.88719 25.2226 9.33233 24.6677C8.77747 24.1129 8.50004 23.4458 8.50004 22.6667V5.66668C8.50004 4.88751 8.77747 4.2205 9.33233 3.66564C9.88719 3.11077 10.5542 2.83334 11.3334 2.83334H28.3334C29.1125 2.83334 29.7796 3.11077 30.3344 3.66564C30.8893 4.2205 31.1667 4.88751 31.1667 5.66668V22.6667C31.1667 23.4458 30.8893 24.1129 30.3344 24.6677C29.7796 25.2226 29.1125 25.5 28.3334 25.5H11.3334ZM11.3334 22.6667H28.3334V5.66668H11.3334V22.6667ZM5.66671 31.1667C4.88754 31.1667 4.22053 30.8892 3.66567 30.3344C3.1108 29.7795 2.83337 29.1125 2.83337 28.3333V9.91668C2.83337 9.51529 2.96914 9.17883 3.24067 8.9073C3.51219 8.63577 3.84865 8.50001 4.25004 8.50001C4.65143 8.50001 4.98789 8.63577 5.25942 8.9073C5.53094 9.17883 5.66671 9.51529 5.66671 9.91668V28.3333H24.0834C24.4848 28.3333 24.8212 28.4691 25.0928 28.7406C25.3643 29.0122 25.5 29.3486 25.5 29.75C25.5 30.1514 25.3643 30.4879 25.0928 30.7594C24.8212 31.0309 24.4848 31.1667 24.0834 31.1667H5.66671Z" fill="#1C1B1F"/>
</g>
</svg>
