<svg width="34" height="34" viewBox="0 0 34 34" fill="none" xmlns="http://www.w3.org/2000/svg">
<mask id="mask0_7_384" style="mask-type:alpha" maskUnits="userSpaceOnUse" x="0" y="0" width="34" height="34">
<rect width="34" height="34" fill="#D9D9D9"/>
</mask>
<g mask="url(#mask0_7_384)">
<path d="M17.2124 28.3333C15.6777 28.3333 14.2964 27.9496 13.0687 27.1823C11.8409 26.4149 10.8492 25.3347 10.0937 23.9417C9.88117 23.5403 9.85756 23.1153 10.0228 22.6667C10.1881 22.2181 10.5069 21.8993 10.9791 21.7104C11.3805 21.5215 11.7878 21.5097 12.201 21.675C12.6142 21.8403 12.9506 22.1354 13.2103 22.5604C13.6353 23.2687 14.1961 23.8413 14.8926 24.2781C15.5892 24.7149 16.386 24.9333 17.2833 24.9333C18.2749 24.9333 19.1721 24.6972 19.9749 24.225C20.7777 23.7528 21.1791 22.9972 21.1791 21.9583C21.1791 21.5333 21.0964 21.1437 20.9312 20.7896C20.7659 20.4354 20.5416 20.1167 20.2583 19.8333H24.2249C24.343 20.1639 24.4315 20.5003 24.4905 20.8427C24.5496 21.1851 24.5791 21.5569 24.5791 21.9583C24.5791 23.9889 23.853 25.559 22.401 26.6687C20.9489 27.7785 19.2194 28.3333 17.2124 28.3333ZM4.24992 17C3.84853 17 3.51207 16.8642 3.24054 16.5927C2.96902 16.3212 2.83325 15.9847 2.83325 15.5833C2.83325 15.1819 2.96902 14.8455 3.24054 14.574C3.51207 14.3024 3.84853 14.1667 4.24992 14.1667H29.7499C30.1513 14.1667 30.4878 14.3024 30.7593 14.574C31.0308 14.8455 31.1666 15.1819 31.1666 15.5833C31.1666 15.9847 31.0308 16.3212 30.7593 16.5927C30.4878 16.8642 30.1513 17 29.7499 17H4.24992ZM10.2708 11.3333C10.318 9.70416 10.9614 8.31701 12.201 7.17187C13.4405 6.02673 15.0638 5.45416 17.0708 5.45416C18.3458 5.45416 19.4909 5.70798 20.5062 6.21562C21.5214 6.72326 22.3714 7.50833 23.0562 8.57083C23.3159 8.97222 23.3631 9.39722 23.1978 9.84583C23.0326 10.2944 22.7138 10.625 22.2416 10.8375C21.8874 11.0028 21.5037 11.0205 21.0905 10.8906C20.6773 10.7608 20.3055 10.4951 19.9749 10.0937C19.668 9.73958 19.2784 9.44444 18.8062 9.20833C18.3339 8.97222 17.7791 8.85416 17.1416 8.85416C16.1735 8.85416 15.3708 9.07256 14.7333 9.50937C14.0958 9.94618 13.7416 10.5542 13.6708 11.3333H10.2708Z" fill="#1C1B1F"/>
</g>
</svg>
