<svg width="34" height="34" viewBox="0 0 34 34" fill="none" xmlns="http://www.w3.org/2000/svg">
<mask id="mask0_7_389" style="mask-type:alpha" maskUnits="userSpaceOnUse" x="0" y="0" width="34" height="34">
<rect width="34" height="34" fill="#D9D9D9"/>
</mask>
<g mask="url(#mask0_7_389)">
<path d="M3.75405 26.9166C3.11655 26.9166 2.64433 26.7041 2.33738 26.2791C2.03044 25.8541 1.99502 25.3347 2.23113 24.7208L8.25197 8.71248C8.44086 8.26387 8.76551 7.88019 9.22593 7.56144C9.68634 7.24269 10.1645 7.08331 10.6603 7.08331C11.1325 7.08331 11.5929 7.24269 12.0416 7.56144C12.4902 7.88019 12.8089 8.26387 12.9978 8.71248L18.9832 24.6854C19.2193 25.2993 19.1898 25.8246 18.8947 26.2614C18.5995 26.6982 18.1096 26.9166 17.4249 26.9166C17.1652 26.9166 16.9054 26.8281 16.6457 26.651C16.386 26.4739 16.2089 26.2555 16.1145 25.9958L14.627 21.8521H6.6228L5.17072 25.9604C5.07627 26.2201 4.89329 26.4444 4.62176 26.6333C4.35023 26.8222 4.061 26.9166 3.75405 26.9166ZM7.64988 18.9833H13.5999L10.6957 10.7666H10.5541L7.64988 18.9833ZM26.9166 22.6666C26.5152 22.6666 26.1787 22.5309 25.9072 22.2594C25.6357 21.9878 25.4999 21.6514 25.4999 21.25V18.4166H22.6666C22.2652 18.4166 21.9287 18.2809 21.6572 18.0094C21.3857 17.7378 21.2499 17.4014 21.2499 17C21.2499 16.5986 21.3857 16.2621 21.6572 15.9906C21.9287 15.7191 22.2652 15.5833 22.6666 15.5833H25.4999V12.75C25.4999 12.3486 25.6357 12.0121 25.9072 11.7406C26.1787 11.4691 26.5152 11.3333 26.9166 11.3333C27.3179 11.3333 27.6544 11.4691 27.9259 11.7406C28.1975 12.0121 28.3332 12.3486 28.3332 12.75V15.5833H31.1666C31.5679 15.5833 31.9044 15.7191 32.1759 15.9906C32.4475 16.2621 32.5832 16.5986 32.5832 17C32.5832 17.4014 32.4475 17.7378 32.1759 18.0094C31.9044 18.2809 31.5679 18.4166 31.1666 18.4166H28.3332V21.25C28.3332 21.6514 28.1975 21.9878 27.9259 22.2594C27.6544 22.5309 27.3179 22.6666 26.9166 22.6666Z" fill="#1C1B1F"/>
</g>
</svg>
